<svg xmlns="http://www.w3.org/2000/svg" xmlns:xlink="http://www.w3.org/1999/xlink" version="1.1" x="0px" y="0px" viewBox="0 0 512 640" style="enable-background:new 0 0 512 512;" xml:space="preserve"><g><path d="M323.5,195.3h-135c-3.7,0-6.7,3-6.7,6.7c0,3.7,3,6.7,6.7,6.7h135c3.7,0,6.7-3,6.7-6.7C330.2,198.3,327.2,195.3,323.5,195.3   z"/><path d="M323.5,249.3h-74.2c-3.7,0-6.7,3-6.7,6.7c0,3.7,3,6.7,6.7,6.7h74.2c3.7,0,6.7-3,6.7-6.7   C330.2,252.3,327.2,249.3,323.5,249.3z"/><path d="M323.5,222.3h-135c-3.7,0-6.7,3-6.7,6.7s3,6.7,6.7,6.7h135c3.7,0,6.7-3,6.7-6.7S327.2,222.3,323.5,222.3z"/><path d="M256,50C142.4,50,50,142.4,50,256s92.4,206,206,206s206-92.4,206-206S369.6,50,256,50z M364,293.1   c0,9.3-7.6,16.9-16.9,16.9h-43.8v47.2c0,2.6-1.5,5-3.8,6.1c-0.9,0.5-1.9,0.7-2.9,0.7c-1.5,0-3-0.5-4.2-1.5L226.6,310h-61.7   c-9.3,0-16.9-7.6-16.9-16.9V164.9c0-9.3,7.6-16.9,16.9-16.9h182.1c9.3,0,16.9,7.6,16.9,16.9V293.1z"/></g><text x="0" y="527" fill="#000000" font-size="5px" font-weight="bold" font-family="'Helvetica Neue', Helvetica, Arial-Unicode, Arial, Sans-serif">Created by QualityIcons</text><text x="0" y="532" fill="#000000" font-size="5px" font-weight="bold" font-family="'Helvetica Neue', Helvetica, Arial-Unicode, Arial, Sans-serif">from the Noun Project</text></svg>